<svg xmlns="http://www.w3.org/2000/svg" width="149.224" height="84.837" viewBox="0 0 149.224 84.837">
  <g id="Calque_2" data-name="Calque 2" transform="translate(-65.553 -253.009)">
    <g id="Groupe_19" data-name="Groupe 19" transform="translate(65.553 253.009)">
      <g id="Groupe_15" data-name="Groupe 15" transform="translate(40.346 0)">
        <path id="Tracé_39" data-name="Tracé 39" d="M699.492,483.347l-.007.014v-.02Z" transform="translate(-630.959 -443.783)" fill="#fff"/>
        <path id="Tracé_40" data-name="Tracé 40" d="M699.492,288.213l-.007.007v-.02Z" transform="translate(-630.959 -282.156)" fill="#fff"/>
        <g id="Groupe_14" data-name="Groupe 14">
          <path id="Tracé_41" data-name="Tracé 41" d="M343.1,276.232a.5.5,0,0,0,0-.837l-3.195-2.048-4.761-3.059-.4-.263-24.809-15.95-.2-.122-1.221-.788a.987.987,0,0,0-.535-.158h-7.015a.493.493,0,0,0-.493.493v5.02a1,1,0,0,0,.457.837l4.533,2.914,21.068,13.546-20.94,13.465-4.662,2.995a.994.994,0,0,0-.457.837v4.933a.5.5,0,0,0,.5.5h7.135a.99.99,0,0,0,.538-.159l.349-.226.743-.473,25.005-16.071.4-.263,4.734-3.045Z" transform="translate(-300.475 -253.009)" fill="#fff"/>
          <path id="Tracé_42" data-name="Tracé 42" d="M538.728,406.014a.668.668,0,0,0-.722,0l-1.455.936-1.654,1.067-4.485,2.886a.494.494,0,0,0,0,.832l19.584,12.59,1.1.706a1,1,0,0,0,.54.159h7.133a.494.494,0,0,0,.494-.494v-4.938a1.008,1.008,0,0,0-.464-.849l-4.648-2.984Z" transform="translate(-490.733 -379.649)" fill="#fff"/>
          <path id="Tracé_43" data-name="Tracé 43" d="M551.63,253.009a.987.987,0,0,0-.534.157l-1.228.789-19.61,12.609a.5.5,0,0,0,0,.833l7.586,4.883a.682.682,0,0,0,.738,0l15.567-10.006,4.527-2.908a.992.992,0,0,0,.456-.835v-5.022a.5.5,0,0,0-.5-.5Z" transform="translate(-490.606 -253.009)" fill="#fff"/>
        </g>
      </g>
      <g id="Groupe_18" data-name="Groupe 18" transform="translate(0 69.082)">
        <g id="Groupe_17" data-name="Groupe 17" transform="translate(125.515)">
          <path id="Tracé_44" data-name="Tracé 44" d="M934.436,734.942l0,0v-.007Z" transform="translate(-910.727 -721.255)" fill="#fff"/>
          <path id="Tracé_45" data-name="Tracé 45" d="M934.436,667.436l0,0v-.007Z" transform="translate(-910.727 -665.341)" fill="#fff"/>
          <g id="Groupe_16" data-name="Groupe 16" transform="translate(0)">
            <path id="Tracé_46" data-name="Tracé 46" d="M811.143,663.291a.172.172,0,0,0,0-.289l-1.105-.708-1.647-1.058-.138-.091-8.583-5.518-.068-.042-.422-.273a.343.343,0,0,0-.185-.055h-2.427a.171.171,0,0,0-.171.171v1.737a.344.344,0,0,0,.158.29l1.568,1.008,7.289,4.686-7.244,4.658-1.613,1.036a.344.344,0,0,0-.158.289v1.707a.173.173,0,0,0,.173.173h2.468a.343.343,0,0,0,.186-.055l.121-.078.257-.164,8.651-5.56.138-.091,1.638-1.054Z" transform="translate(-796.397 -655.257)" fill="#fff"/>
            <path id="Tracé_47" data-name="Tracé 47" d="M878.819,708.189a.231.231,0,0,0-.25,0l-.5.324-.573.369-1.552,1a.171.171,0,0,0,0,.288l6.775,4.355.38.244a.344.344,0,0,0,.187.055h2.468a.171.171,0,0,0,.171-.171v-1.708a.349.349,0,0,0-.16-.294l-1.608-1.032Z" transform="translate(-862.216 -699.068)" fill="#fff"/>
            <path id="Tracé_48" data-name="Tracé 48" d="M883.283,655.257a.342.342,0,0,0-.185.054l-.425.273-6.784,4.362a.172.172,0,0,0,0,.289l2.624,1.689a.236.236,0,0,0,.255,0l5.385-3.462,1.566-1.006a.343.343,0,0,0,.158-.289V655.43a.173.173,0,0,0-.173-.173Z" transform="translate(-862.172 -655.257)" fill="#fff"/>
          </g>
        </g>
        <rect id="Rectangle_16" data-name="Rectangle 16" width="3.204" height="15.754" transform="translate(0 0)" fill="#fff"/>
        <rect id="Rectangle_17" data-name="Rectangle 17" width="3.204" height="15.754" transform="translate(20.917 0)" fill="#fff"/>
        <rect id="Rectangle_18" data-name="Rectangle 18" width="3.204" height="18.143" transform="translate(2.952 3.204) rotate(-90)" fill="#fff"/>
        <rect id="Rectangle_19" data-name="Rectangle 19" width="3.204" height="15.754" transform="translate(85.025 0)" fill="#fff"/>
        <rect id="Rectangle_20" data-name="Rectangle 20" width="3.204" height="15.754" transform="translate(105.942 0)" fill="#fff"/>
        <rect id="Rectangle_21" data-name="Rectangle 21" width="3.204" height="8.812" transform="translate(95.446 6.943)" fill="#fff"/>
        <rect id="Rectangle_22" data-name="Rectangle 22" width="3.204" height="18.143" transform="translate(87.977 3.204) rotate(-90)" fill="#fff"/>
        <rect id="Rectangle_23" data-name="Rectangle 23" width="3.204" height="15.754" transform="translate(42.516 0)" fill="#fff"/>
        <rect id="Rectangle_24" data-name="Rectangle 24" width="3.204" height="15.754" transform="translate(63.433 0)" fill="#fff"/>
        <rect id="Rectangle_25" data-name="Rectangle 25" width="3.204" height="18.143" transform="translate(45.468 3.204) rotate(-90)" fill="#fff"/>
        <rect id="Rectangle_26" data-name="Rectangle 26" width="3.204" height="18.143" transform="translate(45.468 10.147) rotate(-90)" fill="#fff"/>
      </g>
    </g>
  </g>
</svg>
